<svg width="140px" height="141px" viewBox="0 0 140 141" fill="none" xmlns="http://www.w3.org/2000/svg">
<g filter="url(#filter0_d_112:1259)">
<circle cx="70" cy="64" r="64" fill="#F2F4F9"/>
</g>
<path fill-rule="evenodd" clip-rule="evenodd" d="M94.9799 76.8744C94.9799 84.2004 89.0398 90.1429 81.7114 90.1429C74.383 90.1429 68.4453 84.2004 68.4453 76.8744C68.4453 69.5485 74.383 63.606 81.7114 63.606C89.0398 63.606 94.9799 69.5485 94.9799 76.8744" fill="#FAAB1C"/>
<path fill-rule="evenodd" clip-rule="evenodd" d="M63.2458 76.0181C63.2458 66.3576 71.0759 58.5275 80.7364 58.5275C84.0864 58.5275 87.2022 59.4833 89.864 61.1176V46.2697C89.864 45.1802 89.1854 44.2077 88.1699 43.823L67.2839 35.9928C66.6937 35.7706 66.0438 35.7706 65.4512 35.9928L44.5701 43.823C43.5498 44.2077 42.876 45.1802 42.876 46.2697V64.5417C42.876 72.2929 47.1698 79.2725 54.209 85.43C56.6056 87.5279 59.1647 89.3845 61.7214 90.983L63.1478 91.848C64.0176 92.3617 64.7201 92.7392 65.2004 92.9806C65.9363 93.3485 66.8013 93.3485 67.5348 92.9806L68.4141 92.5146C69.1047 92.1371 69.9864 91.6258 71.0138 90.983C71.1261 90.9113 71.236 90.8277 71.3483 90.7584C66.4811 87.6498 63.2458 82.2186 63.2458 76.0181" fill="#04325F"/>
<mask id="mask0_112:1259" style="mask-type:alpha" maskUnits="userSpaceOnUse" x="61" y="35" width="31" height="59">
<path fill-rule="evenodd" clip-rule="evenodd" d="M61.9355 35.8457H91.4973V93.5853H61.9355V35.8457Z" fill="white"/>
</mask>
<g mask="url(#mask0_112:1259)">
<path fill-rule="evenodd" clip-rule="evenodd" d="M91.4615 45.8308C91.311 44.4712 90.4603 43.2263 89.2632 42.6003C88.5488 42.2586 88.3218 42.2371 87.8821 42.0651L86.6922 41.6493C83.5047 40.5836 80.3148 39.5156 77.0843 38.5622C73.8634 37.5897 70.6281 36.6435 67.3379 35.8502C67.271 35.8335 67.1993 35.8645 67.1658 35.9266C67.1252 36.0055 67.1539 36.0963 67.2303 36.1345C70.2315 37.7044 73.2899 39.1141 76.3579 40.5048C79.4188 41.9074 82.5227 43.2001 85.6241 44.4927L86.7949 44.9634C87.1342 45.0996 87.7173 45.3171 87.7507 45.3601C88.0374 45.5321 88.219 45.8523 88.231 46.1677L88.2382 51.0374L88.4269 58.9129C86.9001 58.2893 85.3016 57.852 83.6744 57.6871C81.2634 57.4458 78.8477 57.7254 76.5778 58.3609C72.0235 59.6895 68.1097 62.5663 65.3355 66.3942C62.5662 70.2029 61.1923 75.3593 62.344 80.1764C63.3547 84.5538 66.136 88.439 69.8205 90.8141C69.7201 90.8834 69.6222 90.9575 69.5242 91.0291L68.1598 92.0375C67.6676 92.3433 67.2375 92.7161 66.7931 92.8451C66.3248 92.9885 65.7847 93.0195 65.2686 92.8427C65.2041 92.8212 65.1277 92.8451 65.0894 92.9024C65.0392 92.9741 65.0607 93.0697 65.13 93.1175C65.6342 93.4496 66.2817 93.6456 66.9317 93.5691C67.6222 93.4974 68.1455 93.1796 68.6736 92.9932C69.7177 92.5082 70.793 92.0399 71.7989 91.4736L72.8909 90.8619L71.8013 90.0423C68.3319 87.4259 65.8899 83.6769 65.0225 79.5719C64.1384 75.5098 64.418 71.0177 66.4992 67.123C68.5278 63.2163 72.5492 60.3681 76.8764 59.6512C81.218 58.8938 85.6576 59.9571 89.1366 62.2963L91.1843 63.6679L91.244 61.1136L91.4854 51.0374L91.4925 48.5189L91.4949 47.2597L91.4973 46.6289C91.4902 46.4377 91.5021 46.2203 91.4615 45.8308" fill="#04BEE6"/>
</g>
<path fill-rule="evenodd" clip-rule="evenodd" d="M80.9475 81.7443C80.57 81.7443 80.2474 81.5795 80.1709 81.2091L79.1172 77.852L78.4219 79.0515C78.2809 79.2928 78.0181 79.4648 77.7385 79.4648H74.7493C74.3121 79.4648 73.9561 79.1088 73.9561 78.6739C73.9561 78.2343 74.3121 77.8806 74.7493 77.8806H77.2893L78.7946 75.3287C78.9619 75.0492 79.2821 74.8962 79.607 74.9512C79.9296 75.0038 80.1877 75.2499 80.2546 75.5748L80.8949 78.6548L82.3453 70.5857C82.4146 70.213 82.7444 69.9478 83.1243 69.9478H83.1291C83.5137 69.9478 83.8435 70.2154 83.9104 70.5929L85.4348 80.4708L85.9581 78.3848C86.0752 78.0814 86.3715 77.8782 86.6965 77.8782H88.6749C89.1146 77.8782 89.4682 78.2319 89.4682 78.6715C89.4682 79.1088 89.1146 79.4648 88.6749 79.4648H87.2365L85.8912 83.6989C85.7646 84.0334 85.4301 84.2317 85.074 84.1959C84.7204 84.1624 84.4337 83.8924 84.3739 83.5412L83.1075 75.3025L81.7288 81.19C81.6596 81.5627 81.337 81.7443 80.9595 81.7443H80.9475Z" fill="white"/>
<path fill-rule="evenodd" clip-rule="evenodd" d="M94.9799 76.8744C94.9799 84.2004 89.0398 90.1429 81.7114 90.1429C74.383 90.1429 68.4453 84.2004 68.4453 76.8744C68.4453 69.5485 74.383 63.606 81.7114 63.606C89.0398 63.606 94.9799 69.5485 94.9799 76.8744" fill="#FAAB1C"/>
<path fill-rule="evenodd" clip-rule="evenodd" d="M63.2458 76.0181C63.2458 66.3576 71.0759 58.5275 80.7364 58.5275C84.0864 58.5275 87.2022 59.4833 89.864 61.1176V46.2697C89.864 45.1802 89.1854 44.2077 88.1699 43.823L67.2839 35.9928C66.6937 35.7706 66.0438 35.7706 65.4512 35.9928L44.5701 43.823C43.5498 44.2077 42.876 45.1802 42.876 46.2697V64.5417C42.876 72.2929 47.1698 79.2725 54.209 85.43C56.6056 87.5279 59.1647 89.3845 61.7214 90.983L63.1478 91.848C64.0176 92.3617 64.7201 92.7392 65.2004 92.9806C65.9363 93.3485 66.8013 93.3485 67.5348 92.9806L68.4141 92.5146C69.1047 92.1371 69.9864 91.6258 71.0138 90.983C71.1261 90.9113 71.236 90.8277 71.3483 90.7584C66.4811 87.6498 63.2458 82.2186 63.2458 76.0181" fill="#04325F"/>
<mask id="mask1_112:1259" style="mask-type:alpha" maskUnits="userSpaceOnUse" x="61" y="35" width="31" height="59">
<path fill-rule="evenodd" clip-rule="evenodd" d="M61.9355 35.8457H91.4973V93.5853H61.9355V35.8457Z" fill="white"/>
</mask>
<g mask="url(#mask1_112:1259)">
<path fill-rule="evenodd" clip-rule="evenodd" d="M91.4615 45.8308C91.311 44.4712 90.4603 43.2263 89.2632 42.6003C88.5488 42.2586 88.3218 42.2371 87.8821 42.0651L86.6922 41.6493C83.5047 40.5836 80.3148 39.5156 77.0843 38.5622C73.8634 37.5897 70.6281 36.6435 67.3379 35.8502C67.271 35.8335 67.1993 35.8645 67.1658 35.9266C67.1252 36.0055 67.1539 36.0963 67.2303 36.1345C70.2315 37.7044 73.2899 39.1141 76.3579 40.5048C79.4188 41.9074 82.5227 43.2001 85.6241 44.4927L86.7949 44.9634C87.1342 45.0996 87.7173 45.3171 87.7507 45.3601C88.0374 45.5321 88.219 45.8523 88.231 46.1677L88.2382 51.0374L88.4269 58.9129C86.9001 58.2893 85.3016 57.852 83.6744 57.6871C81.2634 57.4458 78.8477 57.7254 76.5778 58.3609C72.0235 59.6895 68.1097 62.5663 65.3355 66.3942C62.5662 70.2029 61.1923 75.3593 62.344 80.1764C63.3547 84.5538 66.136 88.439 69.8205 90.8141C69.7201 90.8834 69.6222 90.9575 69.5242 91.0291L68.1598 92.0375C67.6676 92.3433 67.2375 92.7161 66.7931 92.8451C66.3248 92.9885 65.7847 93.0195 65.2686 92.8427C65.2041 92.8212 65.1277 92.8451 65.0894 92.9024C65.0392 92.9741 65.0607 93.0697 65.13 93.1175C65.6342 93.4496 66.2817 93.6456 66.9317 93.5691C67.6222 93.4974 68.1455 93.1796 68.6736 92.9932C69.7177 92.5082 70.793 92.0399 71.7989 91.4736L72.8909 90.8619L71.8013 90.0423C68.3319 87.4259 65.8899 83.6769 65.0225 79.5719C64.1384 75.5098 64.418 71.0177 66.4992 67.123C68.5278 63.2163 72.5492 60.3681 76.8764 59.6512C81.218 58.8938 85.6576 59.9571 89.1366 62.2963L91.1843 63.6679L91.244 61.1136L91.4854 51.0374L91.4925 48.5189L91.4949 47.2597L91.4973 46.6289C91.4902 46.4377 91.5021 46.2203 91.4615 45.8308" fill="#04BEE6"/>
</g>
<path fill-rule="evenodd" clip-rule="evenodd" d="M80.9475 81.7443C80.57 81.7443 80.2474 81.5795 80.1709 81.2091L79.1172 77.852L78.4219 79.0515C78.2809 79.2928 78.0181 79.4648 77.7385 79.4648H74.7493C74.3121 79.4648 73.9561 79.1088 73.9561 78.6739C73.9561 78.2343 74.3121 77.8806 74.7493 77.8806H77.2893L78.7946 75.3287C78.9619 75.0492 79.2821 74.8962 79.607 74.9512C79.9296 75.0038 80.1877 75.2499 80.2546 75.5748L80.8949 78.6548L82.3453 70.5857C82.4146 70.213 82.7444 69.9478 83.1243 69.9478H83.1291C83.5137 69.9478 83.8435 70.2154 83.9104 70.5929L85.4348 80.4708L85.9581 78.3848C86.0752 78.0814 86.3715 77.8782 86.6965 77.8782H88.6749C89.1146 77.8782 89.4682 78.2319 89.4682 78.6715C89.4682 79.1088 89.1146 79.4648 88.6749 79.4648H87.2365L85.8912 83.6989C85.7646 84.0334 85.4301 84.2317 85.074 84.1959C84.7204 84.1624 84.4337 83.8924 84.3739 83.5412L83.1075 75.3025L81.7288 81.19C81.6596 81.5627 81.337 81.7443 80.9595 81.7443H80.9475Z" fill="white"/>
<path fill-rule="evenodd" clip-rule="evenodd" d="M102 72.5C102 84.3709 92.3739 94 80.4981 94C68.6222 94 59 84.3709 59 72.5C59 60.6291 68.6222 51 80.4981 51C92.3739 51 102 60.6291 102 72.5Z" fill="#FAAB1C"/>
<path fill-rule="evenodd" clip-rule="evenodd" d="M79.5291 78.7195C78.9066 78.7195 78.3746 78.4858 78.2485 77.9609L76.5109 73.2028L75.3643 74.9028C75.1318 75.2449 74.6984 75.4887 74.2374 75.4887H69.3082C68.5871 75.4887 68 74.9841 68 74.3677C68 73.7446 68.5871 73.2434 69.3082 73.2434H73.4966L75.979 69.6266C76.2548 69.2303 76.7828 69.0136 77.3187 69.0915C77.8506 69.166 78.2761 69.5148 78.3865 69.9754L79.4424 74.3407L81.8342 62.9042C81.9484 62.3759 82.4922 62 83.1187 62H83.1266C83.7609 62 84.3047 62.3793 84.415 62.9144L86.9289 76.9144L87.7918 73.958C87.9849 73.5279 88.4735 73.24 89.0093 73.24H92.2718C92.9968 73.24 93.58 73.7412 93.58 74.3644C93.58 74.9841 92.9968 75.4887 92.2718 75.4887H89.8998L87.6815 81.4897C87.4726 81.9638 86.921 82.2449 86.3339 82.1941C85.7508 82.1467 85.2779 81.764 85.1794 81.2662L83.0911 69.5893L80.8176 77.9338C80.7033 78.4621 80.1714 78.7195 79.5488 78.7195H79.5291Z" fill="white"/>
<defs>
<filter id="filter0_d_112:1259" x="0" y="0" width="140" height="141" filterUnits="userSpaceOnUse" color-interpolation-filters="sRGB">
<feFlood flood-opacity="0" result="BackgroundImageFix"/>
<feColorMatrix in="SourceAlpha" type="matrix" values="0 0 0 0 0 0 0 0 0 0 0 0 0 0 0 0 0 0 127 0" result="hardAlpha"/>
<feOffset dy="7"/>
<feGaussianBlur stdDeviation="3"/>
<feColorMatrix type="matrix" values="0 0 0 0 0 0 0 0 0 0 0 0 0 0 0 0 0 0 0.02 0"/>
<feBlend mode="normal" in2="BackgroundImageFix" result="effect1_dropShadow_112:1259"/>
<feBlend mode="normal" in="SourceGraphic" in2="effect1_dropShadow_112:1259" result="shape"/>
</filter>
</defs>
</svg>
