<svg width="140" height="141" viewBox="0 0 140 141" fill="none" xmlns="http://www.w3.org/2000/svg">
<g filter="url(#filter0_d_866:784)">
<circle cx="70" cy="64" r="64" fill="#F2F4F9"/>
</g>
<path fill-rule="evenodd" clip-rule="evenodd" d="M85.2109 33.4883H55.8862C54.1595 33.4883 52.7598 34.8881 52.7598 36.6148V93.1811C52.7598 94.9079 54.1595 96.3076 55.8862 96.3076H85.209C86.9377 96.3076 88.3374 94.9078 88.3374 93.1792V36.6148C88.3374 34.8881 86.9377 33.4883 85.2109 33.4883" fill="#04325F"/>
<mask id="mask0_866:784" style="mask-type:alpha" maskUnits="userSpaceOnUse" x="52" y="33" width="38" height="65">
<path fill-rule="evenodd" clip-rule="evenodd" d="M52.7505 33.1763H89.7V97.5246H52.7505V33.1763Z" fill="white"/>
</mask>
<g mask="url(#mask0_866:784)">
<path fill-rule="evenodd" clip-rule="evenodd" d="M52.7594 93.1816C52.8181 94.4561 53.7363 95.5524 54.8561 95.8872C55.4101 96.0888 55.9896 96.0144 56.6376 95.9929L58.5249 95.9048C61.0405 95.7991 63.5601 95.6444 66.0758 95.5818L81.1757 95.155L84.9482 95.0982C85.929 95.1393 86.5418 94.6793 86.8883 93.9823C86.9666 93.812 87.0195 93.6319 87.0371 93.4479C87.0567 93.3539 87.0449 93.2697 87.0528 93.1601L87.0469 92.6883L87.0234 90.801L87.0038 87.0246C86.9686 81.9932 86.9607 76.9599 86.9999 71.9266C87.0038 66.8933 87.1056 61.86 87.1722 56.8267L87.595 41.7268C87.6264 40.468 87.6675 39.2112 87.734 37.9524C87.7497 37.3455 87.828 36.6309 87.781 36.1571C87.7203 35.6344 87.4893 35.1274 87.1311 34.7182C86.7669 34.311 86.2755 34.0075 85.7293 33.8764C85.2066 33.7511 84.5253 33.8098 83.9087 33.7824L80.1322 33.7354L65.0343 33.4887L80.1322 33.2421L83.9087 33.1931C84.5488 33.201 85.1322 33.1403 85.8546 33.2108C86.5477 33.3106 87.2133 33.6317 87.736 34.1172C88.2568 34.6066 88.6405 35.2605 88.7932 35.979C88.9302 36.7523 88.8891 37.3024 88.938 37.9524C89.0066 39.2112 89.0477 40.468 89.079 41.7268L89.5019 56.8267C89.5684 61.86 89.6702 66.8933 89.6722 71.9266C89.7133 76.9599 89.7055 81.9932 89.6702 87.0246L89.6507 90.801L89.6291 92.6883L89.6213 93.1601C89.6095 93.3656 89.6076 93.5986 89.5665 93.812C89.5038 94.2525 89.3629 94.6812 89.1691 95.0767C88.7814 95.8735 88.1452 96.5332 87.3817 96.9639C86.6573 97.4044 85.6158 97.563 84.9482 97.518L81.1757 97.4612L66.0758 97.0344C63.5601 96.9718 61.0405 96.8151 58.5249 96.7114L56.6376 96.6233C56.0366 96.59 55.3201 96.6115 54.6936 96.3159C53.4387 95.7815 52.6576 94.4463 52.7594 93.1816" fill="#04BEE6"/>
</g>
<path fill-rule="evenodd" clip-rule="evenodd" d="M70.5528 91.7901C68.9416 91.7901 67.6221 90.4823 67.6221 88.8731C67.6221 87.2619 68.9416 85.9561 70.5528 85.9561C72.1483 85.9561 73.4561 87.2619 73.4561 88.8731C73.4561 90.4823 72.1483 91.7901 70.5528 91.7901" fill="#FAAB1C"/>
<path fill-rule="evenodd" clip-rule="evenodd" d="M84.9029 81.3819C84.9029 81.6031 84.7208 81.7852 84.4976 81.7852H56.5923C56.371 81.7852 56.189 81.6051 56.189 81.3819V41.6186C56.189 41.3954 56.371 41.2134 56.5942 41.2134H84.4976C84.7208 41.2134 84.9029 41.3954 84.9029 41.6186V81.3819Z" fill="white"/>
<defs>
<filter id="filter0_d_866:784" x="0" y="0" width="140" height="141" filterUnits="userSpaceOnUse" color-interpolation-filters="sRGB">
<feFlood flood-opacity="0" result="BackgroundImageFix"/>
<feColorMatrix in="SourceAlpha" type="matrix" values="0 0 0 0 0 0 0 0 0 0 0 0 0 0 0 0 0 0 127 0" result="hardAlpha"/>
<feOffset dy="7"/>
<feGaussianBlur stdDeviation="3"/>
<feColorMatrix type="matrix" values="0 0 0 0 0 0 0 0 0 0 0 0 0 0 0 0 0 0 0.08 0"/>
<feBlend mode="normal" in2="BackgroundImageFix" result="effect1_dropShadow_866:784"/>
<feBlend mode="normal" in="SourceGraphic" in2="effect1_dropShadow_866:784" result="shape"/>
</filter>
</defs>
</svg>
