<svg width="231" height="78" viewBox="0 0 231 78" fill="none" xmlns="http://www.w3.org/2000/svg">
<path d="M102.178 59.6755C98.9589 59.7048 95.7649 59.1069 92.7743 57.9152C89.9946 56.8108 87.4572 55.1744 85.3047 53.0976C83.1995 51.0488 81.5191 48.6049 80.3596 45.9059C79.1342 43.1096 78.507 40.0879 78.5183 37.0349V36.8728C78.4949 33.8259 79.1104 30.8079 80.3249 28.0134C81.495 25.298 83.1869 22.8388 85.3047 20.7754C87.4714 18.674 90.0234 17.0107 92.8207 15.8767C95.8381 14.6301 99.0756 14.0039 102.34 14.0353C105.555 14.0072 108.745 14.6051 111.732 15.7956C114.518 16.8997 117.06 18.5405 119.213 20.6248C121.313 22.6735 122.993 25.1125 124.158 27.805C125.383 30.6136 126.011 33.6465 126 36.7106V36.8728C126.02 39.922 125.409 42.9424 124.205 45.7437C123.031 48.4563 121.335 50.9116 119.213 52.9702C117.044 55.0714 114.493 56.7381 111.697 57.8805C108.675 59.1048 105.439 59.715 102.178 59.6755ZM102.34 48.9748C103.98 49.0032 105.607 48.6794 107.111 48.0252C108.466 47.4301 109.678 46.5537 110.667 45.4542C111.663 44.3514 112.427 43.0597 112.913 41.6557C113.44 40.1686 113.703 38.6009 113.689 37.0233V36.8612C113.705 35.2805 113.43 33.7103 112.879 32.2288C112.348 30.8017 111.54 29.4932 110.503 28.3784C109.466 27.2636 108.219 26.3643 106.834 25.732C105.38 25.0693 103.799 24.7333 102.201 24.7476C100.558 24.7175 98.928 25.0372 97.4183 25.6857C96.0666 26.2849 94.8555 27.1607 93.8629 28.2566C92.8734 29.3641 92.1102 30.6545 91.6162 32.0551C91.0897 33.5422 90.8271 35.11 90.8403 36.6875V36.8496C90.8271 38.4301 91.1018 39.9999 91.651 41.482C92.7272 44.3506 94.8851 46.683 97.6615 47.9788C99.1289 48.6507 100.726 48.9907 102.34 48.9748Z" fill="#04325F"/>
<path d="M56.5725 14.0353C50.203 14.0353 45.3159 16.6642 41.2163 21.4587C38.7727 16.7452 34.152 14.0353 28.0373 14.0353C21.3204 14.0353 17.3018 17.6138 14.256 21.5513V17.6138C14.2615 17.0299 14.1198 16.454 13.8438 15.9393C13.5679 15.4247 13.1667 14.9879 12.6773 14.6693C12.1879 14.3507 11.6261 14.1606 11.0438 14.1166C10.4615 14.0726 9.87746 14.1761 9.34573 14.4175L3.0689 17.1853C2.44743 17.4565 1.91891 17.9037 1.5485 18.4717C1.17809 19.0396 0.981986 19.7036 0.984347 20.3816V54.2788C0.978834 54.8628 1.12059 55.4387 1.39653 55.9533C1.67247 56.468 2.07368 56.9048 2.56308 57.2233C3.05249 57.5419 3.6143 57.732 4.1966 57.776C4.7789 57.82 5.3629 57.7166 5.89463 57.4752L12.1715 54.6957C12.7929 54.4245 13.3214 53.9774 13.6918 53.4094C14.0623 52.8414 14.2584 52.1775 14.256 51.4994V35.6336C14.256 29.3452 17.3018 26.1142 22.2816 26.1142C27.2613 26.1142 30.0407 29.3452 30.0407 35.6336V51.9858C30.0352 52.5698 30.177 53.1457 30.4529 53.6603C30.7289 54.175 31.1301 54.6118 31.6195 54.9303C32.1089 55.2489 32.6707 55.439 33.253 55.483C33.8353 55.527 34.4193 55.4235 34.951 55.1821L41.2279 52.4027C41.8475 52.1323 42.3748 51.6869 42.7451 51.1212C43.1154 50.5555 43.3125 49.8941 43.3124 49.218V35.6336C43.3124 29.3452 46.3698 26.1142 51.338 26.1142C56.3062 26.1142 59.1087 29.3452 59.1087 35.6336V54.4989C59.1041 55.0813 59.246 55.6555 59.5213 56.1688C59.7966 56.682 60.1966 57.1178 60.6844 57.4361C61.1722 57.7544 61.7321 57.9449 62.3128 57.9902C62.8935 58.0354 63.4762 57.934 64.0074 57.6952L70.2843 54.9274C70.9057 54.6561 71.4343 54.209 71.8047 53.641C72.1751 53.0731 72.3712 52.4091 72.3688 51.731V31.2676C72.3688 20.011 66.4394 14.0353 56.5725 14.0353Z" fill="#04325F"/>
<path d="M2.08456 67.8863C1.78014 67.8895 1.48169 67.9711 1.21799 68.1233C0.954291 68.2754 0.73423 68.4929 0.579044 68.7548V66.3576H0V71.9396H0.579044V71.1868C0.73846 71.4423 0.960353 71.6529 1.22377 71.7988C1.48719 71.9447 1.78344 72.021 2.08456 72.0206C2.34266 72.015 2.59694 71.957 2.83203 71.8504C3.06713 71.7437 3.27818 71.5905 3.45244 71.4C3.62669 71.2095 3.76053 70.9857 3.84589 70.742C3.93125 70.4984 3.96635 70.24 3.94908 69.9824C3.97647 69.7199 3.94882 69.4545 3.86791 69.2032C3.787 68.952 3.6546 68.7203 3.47916 68.5231C3.30372 68.3258 3.08909 68.1673 2.84897 68.0577C2.60885 67.9481 2.34851 67.8897 2.08456 67.8863ZM3.35845 69.9361C3.37622 70.1275 3.35376 70.3205 3.29251 70.5027C3.23125 70.6849 3.13256 70.8522 3.00277 70.994C2.87299 71.1358 2.71497 71.2489 2.53889 71.3259C2.36281 71.403 2.17255 71.4424 1.98034 71.4416C1.78668 71.4371 1.59585 71.3942 1.41898 71.3152C1.24211 71.2362 1.08272 71.1228 0.950135 70.9816C0.817545 70.8404 0.714403 70.6742 0.646715 70.4927C0.579026 70.3112 0.548148 70.118 0.555886 69.9245C0.549716 69.7319 0.581755 69.54 0.650152 69.3598C0.718548 69.1797 0.821949 69.0149 0.954385 68.8749C1.08682 68.7349 1.24567 68.6226 1.42176 68.5443C1.59785 68.4661 1.78769 68.4235 1.98034 68.419C2.17204 68.4232 2.36089 68.4663 2.53537 68.5459C2.70986 68.6254 2.86633 68.7396 2.99526 68.8815C3.12419 69.0234 3.22288 69.1901 3.28532 69.3714C3.34776 69.5527 3.37265 69.7448 3.35845 69.9361Z" fill="#04325F"/>
<path d="M6.29998 71.2332L4.87554 67.9674H4.23859L6.02204 71.8702C5.77884 72.4261 5.5588 72.5998 5.21138 72.5998C4.99787 72.611 4.78544 72.5629 4.59759 72.4608L4.40072 72.924C4.65885 73.0556 4.94484 73.1231 5.23454 73.1209C5.82517 73.1209 6.20733 72.8198 6.54318 71.9628L8.18766 67.9211H7.5623L6.29998 71.2332Z" fill="#04325F"/>
<path d="M12.5074 68.1643H14.673L18.4368 77.8343H16.3059L15.4837 75.6108H11.6041L10.7702 77.8343H8.77832L12.5074 68.1643ZM13.5612 70.0983L12.1715 74.0937H14.9741L13.5612 70.0983Z" fill="#04325F"/>
<path d="M24.7831 69.936C24.1703 69.6642 23.5078 69.5222 22.8375 69.5191C22.647 69.4943 22.4535 69.5106 22.2699 69.5669C22.0863 69.6232 21.9169 69.7182 21.7731 69.8455C21.6294 69.9728 21.5145 70.1295 21.4364 70.3049C21.3583 70.4803 21.3188 70.6705 21.3204 70.8625C21.3204 72.5417 25.5242 71.8353 25.5242 75.0779C25.5242 77.1857 23.8682 77.9963 21.9226 77.9963C21.0905 77.9936 20.2633 77.8688 19.4674 77.6257L19.6527 75.877C20.3153 76.2485 21.059 76.4513 21.8183 76.4677C22.5479 76.4677 23.5207 76.0971 23.5207 75.2285C23.5207 73.3871 19.3169 74.1515 19.3169 70.9436C19.3169 68.7895 20.9845 68.002 22.6638 68.002C23.4499 67.986 24.2331 68.1034 24.9799 68.3495L24.7831 69.936Z" fill="#04325F"/>
<path d="M29.0101 69.693H26.2654V68.1643H33.6772V69.693H30.9325V77.7996H29.0101V69.693Z" fill="#04325F"/>
<path d="M34.731 68.1642H36.8272C38.8885 68.1642 41.3437 68.0947 41.3437 70.7814C41.3554 71.336 41.1584 71.8748 40.7916 72.2909C40.4248 72.7071 39.915 72.9702 39.3634 73.0281C39.8845 73.0281 40.1856 73.5956 40.3825 74.0241L41.9227 77.811H39.7803L38.6222 74.7884C38.3558 74.0704 38.101 73.7925 37.2904 73.7925H36.6766V77.811H34.7542L34.731 68.1642ZM36.6534 72.287H37.2788C38.2284 72.287 39.317 72.148 39.317 70.9436C39.317 69.7392 38.24 69.6928 37.2788 69.6928H36.6534V72.287Z" fill="#04325F"/>
<path d="M46.0223 68.1643H48.188L51.9517 77.8343H49.8324L48.9986 75.6108H45.119L44.2852 77.8343H42.2933L46.0223 68.1643ZM47.0762 70.0983L45.6865 74.0937H48.4891L47.0762 70.0983Z" fill="#04325F"/>
<path d="M53.133 68.1643H57.6727V68.9981H54.0826V72.4724H57.5569V73.2946H54.0826V77.8575H53.133V68.1643Z" fill="#04325F"/>
<path d="M60.1163 68.8824H59.2593V67.7243H60.1163V68.8824ZM59.2593 70.7701H60.1163V77.8344H59.2593V70.7701Z" fill="#04325F"/>
<path d="M62.3051 72.4259C62.3329 71.8781 62.3329 71.3293 62.3051 70.7814H63.1389V72.0438C63.3095 71.5811 63.6306 71.1892 64.0506 70.9309C64.4706 70.6726 64.9652 70.5629 65.4551 70.6193C67.1806 70.6193 67.8407 71.7774 67.8407 73.3292V77.8458H66.9374V73.5493C66.9374 72.2175 66.4626 71.3605 65.2698 71.3605C63.6948 71.3605 63.1968 72.7618 63.1968 73.9314V77.8458H62.3051V72.4259Z" fill="#04325F"/>
<path d="M73.9554 76.6995C73.7402 77.0995 73.4186 77.4322 73.0263 77.6611C72.6339 77.89 72.186 78.006 71.7319 77.9966C69.74 77.9966 69.4157 76.6416 69.4157 76.0047C69.4157 73.6306 71.9172 73.5264 73.7238 73.5264H73.886V73.1673C73.886 72.0093 73.4575 71.3491 72.2878 71.3491C71.5586 71.3344 70.8413 71.5359 70.2264 71.9282V71.0828C70.8779 70.7972 71.577 70.6362 72.2878 70.608C74.0133 70.608 74.7429 71.3955 74.7429 73.2368V76.3521C74.7295 76.8472 74.7527 77.3427 74.8124 77.8344H73.967L73.9554 76.6995ZM73.886 74.2559H73.6312C72.1372 74.2559 70.3538 74.4065 70.3538 75.9583C70.3538 76.8848 71.0139 77.2322 71.813 77.2322C73.8396 77.2322 73.886 75.4488 73.886 74.6844V74.2559Z" fill="#04325F"/>
<path d="M76.7928 72.4262C76.821 71.8745 76.821 71.3217 76.7928 70.7701H77.6382V72.0324C77.8096 71.5825 78.1225 71.2004 78.5297 70.9435C78.9369 70.6866 79.4165 70.5689 79.8964 70.608C81.6336 70.608 82.2937 71.766 82.2937 73.3179V77.8344H81.4251V73.5379C81.4251 72.2061 80.9619 71.3491 79.769 71.3491C78.1825 71.3491 77.6961 72.7504 77.6961 73.9201V77.8344H76.8275L76.7928 72.4262Z" fill="#04325F"/>
<path d="M88.9411 71.708C88.4717 71.4908 87.964 71.3688 87.4472 71.349C87.0723 71.3442 86.7008 71.4201 86.3578 71.5713C86.0148 71.7226 85.7083 71.9458 85.459 72.2258C85.2097 72.5058 85.0235 72.8361 84.913 73.1943C84.8025 73.5526 84.7702 73.9303 84.8183 74.3021C84.78 74.6641 84.8163 75.03 84.9249 75.3774C85.0335 75.7247 85.2122 76.0461 85.4498 76.3218C85.6875 76.5974 85.9791 76.8214 86.3067 76.98C86.6343 77.1385 86.9909 77.2283 87.3545 77.2437C87.8943 77.2372 88.4282 77.1312 88.9295 76.931L89.0106 77.7416C88.4322 77.9329 87.8243 78.0192 87.2155 77.9964C86.7447 78.0008 86.2782 77.9054 85.8468 77.7165C85.4154 77.5277 85.029 77.2496 84.7128 76.9006C84.3966 76.5516 84.1579 76.1396 84.0125 75.6918C83.867 75.2439 83.818 74.7703 83.8687 74.3021C83.8278 73.8254 83.888 73.3454 84.0451 72.8934C84.2023 72.4414 84.4529 72.0277 84.7808 71.6791C85.1086 71.3305 85.5062 71.0549 85.9477 70.8703C86.3891 70.6858 86.8646 70.5963 87.3429 70.6078C87.9172 70.6043 88.4883 70.6943 89.0337 70.8742L88.9411 71.708Z" fill="#04325F"/>
<path d="M91.3846 68.8824H90.5161V67.7243H91.3846V68.8824ZM90.5161 70.7701H91.3846V77.8344H90.5161V70.7701Z" fill="#04325F"/>
<path d="M97.5804 76.6995C97.3651 77.0995 97.0435 77.4322 96.6512 77.6611C96.2589 77.89 95.8109 78.006 95.3568 77.9966C93.3649 77.9966 93.0406 76.6416 93.0406 76.0047C93.0406 73.6306 95.5305 73.5264 97.3487 73.5264H97.5109V73.1673C97.5109 72.0093 97.0824 71.3491 95.9243 71.3491C95.1951 71.3344 94.4778 71.5359 93.8629 71.9282V71.0828C94.5136 70.7948 95.2132 70.6337 95.9243 70.608C97.6498 70.608 98.3794 71.3955 98.3794 73.2368V76.3521C98.366 76.8472 98.3892 77.3427 98.4489 77.8344H97.5919L97.5804 76.6995ZM97.4993 74.2675H97.2561C95.7622 74.2675 93.9787 74.4181 93.9787 75.9699C93.9787 76.8964 94.6272 77.2438 95.4263 77.2438C97.4646 77.2438 97.4993 75.4604 97.4993 74.696V74.2675Z" fill="#04325F"/>
<path d="M100.418 67.4464H101.286V77.8692H100.418V67.4464Z" fill="#04325F"/>
<path d="M170.714 38.7836L182.202 48.0482C183.548 49.1552 184.405 50.7476 184.587 52.4812C184.769 54.2148 184.262 55.9504 183.175 57.3129C182.627 57.9902 181.952 58.553 181.187 58.969C180.423 59.3851 179.583 59.6463 178.717 59.7377C177.852 59.8292 176.976 59.749 176.141 59.5018C175.306 59.2547 174.529 58.8454 173.852 58.2973L162.364 49.0326C161 47.9221 160.131 46.3161 159.949 44.5665C159.767 42.8169 160.285 41.0664 161.391 39.6984C162.506 38.341 164.115 37.482 165.863 37.3104C167.611 37.1389 169.356 37.6688 170.714 38.7836Z" fill="#FAAB1C"/>
<path d="M157.627 28.3725L138.82 13.0279C138.147 12.4459 137.364 12.0051 136.518 11.7317C135.671 11.4582 134.779 11.3578 133.893 11.4362C133.007 11.5147 132.145 11.7705 131.36 12.1885C130.575 12.6064 129.882 13.178 129.322 13.8691C128.762 14.5603 128.347 15.357 128.101 16.2118C127.855 17.0666 127.783 17.9622 127.891 18.8452C127.998 19.7283 128.281 20.5807 128.724 21.352C129.167 22.1233 129.761 22.7976 130.47 23.3348L140.348 31.4415C140.854 31.8492 141.274 32.3528 141.583 32.9235C141.893 33.4941 142.087 34.1204 142.154 34.7663C142.221 35.4121 142.159 36.0649 141.972 36.6868C141.786 37.3087 141.478 37.8876 141.066 38.39L127.494 55.1475C126.388 56.5155 125.869 58.266 126.052 60.0156C126.234 61.7651 127.102 63.3711 128.467 64.4817C129.144 65.0301 129.923 65.4396 130.759 65.6869C131.594 65.9343 132.471 66.0145 133.338 65.9231C134.204 65.8317 135.045 65.5704 135.81 65.1542C136.576 64.7379 137.253 64.1749 137.801 63.4973L158.646 37.7994C159.207 37.1172 159.626 36.33 159.879 35.4839C160.132 34.6378 160.213 33.7497 160.118 32.8718C160.023 31.9938 159.754 31.1436 159.326 30.3711C158.898 29.5985 158.321 28.919 157.627 28.3725Z" fill="#04325F"/>
<path d="M158.797 16.4094L170.007 2.45443C170.555 1.77802 171.231 1.21625 171.996 0.801241C172.762 0.38623 173.601 0.126119 174.467 0.0357728C175.333 -0.0545732 176.208 0.0266193 177.042 0.274711C177.877 0.522803 178.654 0.932928 179.33 1.48164C180.007 2.02878 180.57 2.70407 180.986 3.46888C181.402 4.23369 181.663 5.07303 181.755 5.93887C181.846 6.80472 181.766 7.6801 181.519 8.51494C181.272 9.34978 180.862 10.1277 180.314 10.8042L169.081 24.7013C168.533 25.3789 167.856 25.9419 167.09 26.3581C166.325 26.7744 165.484 27.0357 164.618 27.1271C163.751 27.2185 162.874 27.1382 162.039 26.8909C161.203 26.6436 160.424 26.234 159.747 25.6857C158.403 24.5733 157.55 22.9773 157.372 21.242C157.195 19.5066 157.706 17.7709 158.797 16.4094Z" fill="#FAAB1C"/>
<path d="M230.459 30.1328C230.459 29.8896 230.459 29.6349 230.459 29.3801V23.8676C230.459 23.636 230.459 23.4044 230.459 23.1843V18.0077C230.459 17.5604 230.347 17.1202 230.134 16.7271C229.92 16.334 229.612 16.0003 229.237 15.7565C228.862 15.5126 228.432 15.3663 227.987 15.3306C227.541 15.295 227.093 15.3713 226.684 15.5525L221.855 17.6834C221.528 17.8294 221.233 18.0379 220.986 18.2972C217.64 15.9196 213.71 14.4993 209.617 14.1892C205.524 13.879 201.425 14.6907 197.759 16.5369C194.093 18.3831 191 21.194 188.813 24.667C186.625 28.14 185.426 32.1437 185.345 36.2474C185.263 40.351 186.302 44.3992 188.35 47.9564C190.398 51.5135 193.376 54.445 196.966 56.4354C200.556 58.4258 204.62 59.3997 208.722 59.2523C212.824 59.105 216.808 57.842 220.245 55.5992V56.5835C220.245 57.0308 220.357 57.471 220.57 57.8641C220.784 58.2573 221.092 58.5909 221.467 58.8347C221.842 59.0786 222.272 59.225 222.718 59.2606C223.164 59.2962 223.611 59.2199 224.02 59.0387L228.838 56.8847C229.314 56.672 229.719 56.3258 230.002 55.888C230.286 55.4502 230.437 54.9396 230.436 54.4179V37.672C230.436 37.3477 230.436 37.0235 230.436 36.6992C230.436 36.3749 230.436 36.0391 230.436 35.7264V30.1328H230.459ZM207.888 47.4231C205.769 47.4162 203.699 46.7814 201.94 45.5989C200.181 44.4164 198.812 42.7392 198.005 40.779C197.199 38.8189 196.992 36.6638 197.409 34.5859C197.827 32.5079 198.851 30.6004 200.352 29.1041C201.853 27.6078 203.764 26.5899 205.844 26.1789C207.923 25.7679 210.077 25.9823 212.035 26.795C213.992 27.6077 215.665 28.9822 216.842 30.745C218.019 32.5077 218.647 34.5797 218.647 36.6992C218.647 38.1104 218.368 39.5077 217.827 40.8111C217.286 42.1144 216.493 43.2982 215.494 44.2944C214.494 45.2907 213.308 46.0799 212.003 46.6168C210.698 47.1536 209.299 47.4277 207.888 47.4231Z" fill="#04325F"/>
</svg>
