<svg width="20" height="12" viewBox="0 0 20 12" fill="none" xmlns="http://www.w3.org/2000/svg">
<path d="M17.711 4.8286e-06C17.4085 -0.000613942 17.1089 0.0570335 16.8294 0.169625C16.55 0.282216 16.2962 0.447522 16.0827 0.656011L10.913 5.6852C10.7909 5.80407 10.6459 5.89837 10.4864 5.96271C10.3268 6.02704 10.1558 6.06015 9.98305 6.06015C9.81033 6.06015 9.63929 6.02704 9.47973 5.96271C9.32016 5.89837 9.17519 5.80407 9.05309 5.6852L3.88464 0.656011C3.44864 0.255852 2.86952 0.0367718 2.27021 0.0452724C1.6709 0.053773 1.09859 0.289186 0.674765 0.70154C0.250942 1.11389 0.00898163 1.67072 0.000244042 2.25381C-0.00849355 2.83691 0.21668 3.40036 0.627968 3.82456L8.35593 11.3434C8.5697 11.5516 8.82354 11.7167 9.10294 11.8293C9.38234 11.942 9.68182 12 9.98426 12C10.595 11.9997 11.1807 11.7636 11.6126 11.3434L19.2983 3.86622C20.1993 2.98959 20.2482 1.55377 19.3544 0.669509C19.1401 0.457085 18.8843 0.288442 18.6021 0.173475C18.3199 0.0585077 18.017 -0.000469618 17.711 4.8286e-06Z" fill="#04325F"/>
</svg>
